<svg id="Layer_2" data-name="Layer 2" xmlns="http://www.w3.org/2000/svg" xmlns:xlink="http://www.w3.org/1999/xlink" viewBox="0 0 400 300" width="406" height="306" class="illustration styles_illustrationTablet__1DWOa"><defs><linearGradient id="linear-gradient" x1="136.41" y1="247.57" x2="162.05" y2="209.11" gradientUnits="userSpaceOnUse"><stop offset="0" stop-color="#ffd62c"></stop><stop offset="1" stop-color="#f15a24"></stop></linearGradient><linearGradient id="linear-gradient-2" x1="165.89" y1="210.73" x2="193.87" y2="168.76" gradientUnits="userSpaceOnUse"><stop offset="0" stop-color="#f26250"></stop><stop offset="1" stop-color="#9e005d"></stop></linearGradient></defs><title>PP</title><path d="M194.28,287.39,14.56,181.17C8.84,178,3.93,172.68,9.51,169.22l180.37-104c2.71-1.68,6.82-2.78,9.57-1.18L388.11,173.58c5.72,3.32,6.75,12.6,1,15.93L218,287.22A23.9,23.9,0,0,1,194.28,287.39Z" fill="#ffd62c"></path><path d="M118.88,207.79c-4.23-2.8-8-6.18-12.3-8.91l-33.37,17,108.44,64.09L213.16,259C211.35,258,120.61,208.93,118.88,207.79Z" fill="url(#linear-gradient)"></path><path d="M282.29,218.83c.35,0,3.5-1.26.85-3.29a54.55,54.55,0,0,0-5.51-3.77" fill="#9a433a"></path><path d="M282.29,202.12s-2.65,9.82,0,15l-36,21.19L210.58,259V243.75" fill="#ffe8bc"></path><path d="M283.48,200.6q-.12,1-.26,2l-72.64,41.11V259l72.58-42.33c0,.6,0,1.21,0,1.81l-75.4,43.64V241.32Z" fill="#9a433a"></path><path d="M283.08,200.87l-74.91,42.88L103.05,182l73.31-42a7.23,7.23,0,0,1,7.28.05L283.09,199A1.09,1.09,0,0,1,283.08,200.87Z" fill="#f26250"></path><path d="M207.78,262.11s-105.05-61.87-104.73-62.16,0-17.91,0-17.91l105.12,61.71Z" fill="#9a433a"></path><path d="M283.09,199a2.67,2.67,0,0,1,1.1,1.9c.12,1.28-1.24,1.9-1.71,2.17" fill="#9a433a"></path><path d="M106.38,83.78l-6.88-6.88a4,4,0,0,0-5.71,5.71l6.88,6.88a4,4,0,0,0,5.71-5.71Z" fill="#68e1fd"></path><path d="M89.95,97.31h-11c-5.2,0-5.21,8.08,0,8.08h11C95.15,105.39,95.16,97.31,89.95,97.31Z" fill="#68e1fd"></path><path d="M106.84,115a4.1,4.1,0,0,0-5.71,0l-7.34,7.34A4,4,0,0,0,99.49,128l7.34-7.34A4.11,4.11,0,0,0,106.84,115Z" fill="#68e1fd"></path><path d="M273.08,121.54l6.88,6.88a4,4,0,0,0,5.71-5.71l-6.88-6.88a4,4,0,0,0-5.71,5.71Z" fill="#68e1fd"></path><path d="M289.51,108h11c5.2,0,5.21-8.08,0-8.08h-11C284.31,99.93,284.3,108,289.51,108Z" fill="#68e1fd"></path><path d="M272.62,90.33a4.1,4.1,0,0,0,5.71,0L285.68,83A4,4,0,1,0,280,77.28l-7.34,7.34A4.11,4.11,0,0,0,272.62,90.33Z" fill="#68e1fd"></path><polyline points="162.12 174.97 126.3 195.69 179.61 226.99 220.26 203.61" fill="url(#linear-gradient-2)"></polyline><path d="M232.59,44.89l2.67-4.26s.77-3.86,1.76-3.52.46,4.12.46,4.12,5.48-5.38,7-3.81S246.93,43,246,44.1s-11.08,5.5-11.08,5.5" fill="#fbb5ad"></path><path d="M168.18,21.65l1-4.09s1.85-2.73,1.07-3.11-2.73,2.14-2.73,2.14,0-6.42-1.85-6.42-4.77,1.85-4.87,3S164,23,164,23" fill="#fbb5ad"></path><path d="M160.88,180.34v12.2s7.12,17.73,33.68,17.73,35.74-17.11,35.74-17.11V182" fill="#68e1fd"></path><ellipse cx="195.59" cy="180.34" rx="34.71" ry="20.24" fill="#68e1fd"></ellipse><ellipse cx="195.59" cy="180.34" rx="34.71" ry="20.24" fill="#463f46" opacity="0.31"></ellipse><path d="M183.37,154.9V169s3.27,6,12.76,6,11.78-6.87,11.78-6.87v-16" fill="#68e1fd"></path><path d="M237.9,106l17.62,10.39s3.66,37.26-31.47,29.67l5.38-8.22s16.33,1.28,16.17-16.33l-9.44-5Z" fill="#68e1fd"></path><path d="M154.06,58.28l-17.31-9.56a4.69,4.69,0,0,0-3.33,4.78c.15,3.85-1.25,27.35,19.81,49v-15S144.79,76,143.73,64l8.6,5.15" fill="#68e1fd"></path><path d="M150.78,68l3.92,55.42s5.48,33,40.95,33,40.58-32.71,40.58-32.71L241.48,68" fill="#68e1fd"></path><path d="M213.2,91.06S227,89.34,233.45,80.18c0,0-1.54,61.24-11.88,68s-12.38,9.06-32.42,8.19C189.15,156.41,214.61,154.43,213.2,91.06Z" fill="#463f46" opacity="0.13"></path><ellipse cx="196.13" cy="68.02" rx="45.35" ry="26.05" fill="#68e1fd"></ellipse><ellipse cx="196.13" cy="68.02" rx="45.35" ry="26.05" fill="#0d77a0"></ellipse><ellipse cx="195.65" cy="67.94" rx="36.4" ry="17.81" fill="#023d4f"></ellipse><path d="M174.37,38c-.6-2.48-3.91-13.28-4.9-18.29-3.77-.57-5.6-.58-7.93,2.07.9,6.47,2.54,17.57,3.65,21.35C166.79,48.59,184.64,62,184.64,62l4.5-16.89S175.14,41.19,174.37,38Z" fill="#f26250"></path><path d="M232.05,43.14S219.56,57.44,216,57.7s-11.42-7.57-11.42-7.57l-12-4.59c.09,5.39.19,10.77.1,16.15L202.67,66S208,73.08,216,73.69s22.55-23.26,22.55-23.26C238.27,47.76,232.05,43.14,232.05,43.14Z" fill="#f26250"></path><path d="M201.8,82.79s8.44-24.53,5-30.14-17.07-10-23.62-9.46-2.35,39.32-1.31,39.6S192.6,89.72,201.8,82.79Z" fill="#f26250"></path><path d="M180.53,79.11V84.9s11.07,3.12,22.14.85L202,80.68S193.29,85.17,180.53,79.11Z" fill="#af2b38"></path><path d="M184,33.36s0,14.33,5.25,15.26c5.77,1,9-5.53,9-5.53s.74-12.66-5-13.77S184.12,31.53,184,33.36Z" fill="#fbb5ad"></path><path d="M184.58,35.14c-1.79-.48-3.92-1-5-2.69-1.6-2.53.16-5.16,2.27-6.69A11.22,11.22,0,0,1,190.59,24c4.11.7,10,2.45,11.09,7.1,1.56,6.42-4.59,14.52-4.59,14.52v-4s2.07-2.66,1-3.68-1.53,1.45-1.53,1.45.47-4.74-2.91-5.26c-1.4-.22-1.91.56-3.05,1.17a4.85,4.85,0,0,1-2.59.48A17.58,17.58,0,0,1,184.58,35.14Z" fill="#5c2e2e"></path></svg>